<mxfile host="app.diagrams.net" agent="Mozilla/5.0 (Macintosh; Intel Mac OS X 10_15_7) AppleWebKit/537.36 (KHTML, like Gecko) Chrome/133.0.0.0 Safari/537.36" version="26.1.1">
  <diagram name="페이지-1" id="zpAioUnbNHaB1HZAK-Gk">
    <mxGraphModel dx="710" dy="416" grid="1" gridSize="10" guides="1" tooltips="1" connect="1" arrows="1" fold="1" page="1" pageScale="1" pageWidth="827" pageHeight="1169" math="0" shadow="0">
      <root>
        <mxCell id="0" />
        <mxCell id="1" parent="0" />
        <mxCell id="UuwrwuRLREhhJN5w9pP1-1" value="&lt;font style=&quot;font-size: 11px;&quot;&gt;클라이언트 1&lt;/font&gt;" style="rounded=1;whiteSpace=wrap;html=1;" vertex="1" parent="1">
          <mxGeometry x="70" y="240" width="90" height="40" as="geometry" />
        </mxCell>
        <mxCell id="UuwrwuRLREhhJN5w9pP1-2" value="&lt;font style=&quot;font-size: 11px;&quot;&gt;클라이언트 2&lt;/font&gt;" style="rounded=1;whiteSpace=wrap;html=1;" vertex="1" parent="1">
          <mxGeometry x="70" y="320" width="90" height="40" as="geometry" />
        </mxCell>
        <mxCell id="UuwrwuRLREhhJN5w9pP1-3" value="&lt;font style=&quot;font-size: 11px;&quot;&gt;클라이언트 N&lt;/font&gt;" style="rounded=1;whiteSpace=wrap;html=1;" vertex="1" parent="1">
          <mxGeometry x="70" y="400" width="90" height="40" as="geometry" />
        </mxCell>
        <mxCell id="UuwrwuRLREhhJN5w9pP1-4" value="" style="endArrow=classic;html=1;rounded=0;exitX=1;exitY=0.5;exitDx=0;exitDy=0;entryX=-0.02;entryY=0.121;entryDx=0;entryDy=0;entryPerimeter=0;" edge="1" parent="1" source="UuwrwuRLREhhJN5w9pP1-1" target="UuwrwuRLREhhJN5w9pP1-8">
          <mxGeometry width="50" height="50" relative="1" as="geometry">
            <mxPoint x="330" y="360" as="sourcePoint" />
            <mxPoint x="240" y="320" as="targetPoint" />
          </mxGeometry>
        </mxCell>
        <mxCell id="UuwrwuRLREhhJN5w9pP1-5" value="" style="endArrow=classic;html=1;rounded=0;exitX=1;exitY=0.25;exitDx=0;exitDy=0;entryX=0;entryY=0.5;entryDx=0;entryDy=0;" edge="1" parent="1" source="UuwrwuRLREhhJN5w9pP1-2" target="UuwrwuRLREhhJN5w9pP1-8">
          <mxGeometry width="50" height="50" relative="1" as="geometry">
            <mxPoint x="330" y="360" as="sourcePoint" />
            <mxPoint x="240" y="340" as="targetPoint" />
          </mxGeometry>
        </mxCell>
        <mxCell id="UuwrwuRLREhhJN5w9pP1-6" value="" style="endArrow=none;dashed=1;html=1;dashPattern=1 3;strokeWidth=2;rounded=0;" edge="1" parent="1">
          <mxGeometry width="50" height="50" relative="1" as="geometry">
            <mxPoint x="120" y="390" as="sourcePoint" />
            <mxPoint x="120" y="370" as="targetPoint" />
          </mxGeometry>
        </mxCell>
        <mxCell id="UuwrwuRLREhhJN5w9pP1-7" value="" style="endArrow=classic;html=1;rounded=0;exitX=1;exitY=0.5;exitDx=0;exitDy=0;entryX=-0.015;entryY=0.871;entryDx=0;entryDy=0;entryPerimeter=0;" edge="1" parent="1" source="UuwrwuRLREhhJN5w9pP1-3" target="UuwrwuRLREhhJN5w9pP1-8">
          <mxGeometry width="50" height="50" relative="1" as="geometry">
            <mxPoint x="330" y="360" as="sourcePoint" />
            <mxPoint x="240" y="360" as="targetPoint" />
          </mxGeometry>
        </mxCell>
        <mxCell id="UuwrwuRLREhhJN5w9pP1-8" value="&amp;nbsp;Spring Cloud&amp;nbsp; &amp;nbsp; &amp;nbsp;Gateway" style="rounded=1;whiteSpace=wrap;html=1;align=left;dashed=1;" vertex="1" parent="1">
          <mxGeometry x="250" y="290" width="130" height="80" as="geometry" />
        </mxCell>
        <mxCell id="UuwrwuRLREhhJN5w9pP1-9" value="&lt;div&gt;&lt;span style=&quot;font-size: 7px;&quot;&gt;rate limiter&lt;/span&gt;&lt;/div&gt;&lt;font style=&quot;font-size: 7px;&quot;&gt;전송율 제한&lt;/font&gt;" style="rounded=1;whiteSpace=wrap;html=1;" vertex="1" parent="1">
          <mxGeometry x="330" y="300" width="40" height="35" as="geometry" />
        </mxCell>
        <mxCell id="UuwrwuRLREhhJN5w9pP1-13" value="" style="endArrow=classic;html=1;rounded=0;exitX=0.539;exitY=1.038;exitDx=0;exitDy=0;exitPerimeter=0;entryX=0.571;entryY=-0.057;entryDx=0;entryDy=0;entryPerimeter=0;" edge="1" parent="1" source="UuwrwuRLREhhJN5w9pP1-8" target="UuwrwuRLREhhJN5w9pP1-14">
          <mxGeometry width="50" height="50" relative="1" as="geometry">
            <mxPoint x="270" y="400" as="sourcePoint" />
            <mxPoint x="320" y="400" as="targetPoint" />
          </mxGeometry>
        </mxCell>
        <mxCell id="UuwrwuRLREhhJN5w9pP1-14" value="&lt;font style=&quot;font-size: 11px;&quot;&gt;Redis&lt;/font&gt;" style="shape=cylinder3;whiteSpace=wrap;html=1;boundedLbl=1;backgroundOutline=1;size=15;fillColor=#f8cecc;strokeColor=#b85450;" vertex="1" parent="1">
          <mxGeometry x="280" y="410" width="70" height="60" as="geometry" />
        </mxCell>
        <mxCell id="UuwrwuRLREhhJN5w9pP1-15" value="" style="endArrow=classic;html=1;rounded=0;exitX=1.023;exitY=0.853;exitDx=0;exitDy=0;exitPerimeter=0;entryX=-0.02;entryY=0.329;entryDx=0;entryDy=0;entryPerimeter=0;" edge="1" parent="1" source="UuwrwuRLREhhJN5w9pP1-8" target="UuwrwuRLREhhJN5w9pP1-16">
          <mxGeometry width="50" height="50" relative="1" as="geometry">
            <mxPoint x="330" y="370" as="sourcePoint" />
            <mxPoint x="480" y="360" as="targetPoint" />
          </mxGeometry>
        </mxCell>
        <mxCell id="UuwrwuRLREhhJN5w9pP1-16" value="" style="rounded=1;whiteSpace=wrap;html=1;align=left;dashed=1;" vertex="1" parent="1">
          <mxGeometry x="490" y="340" width="70" height="60" as="geometry" />
        </mxCell>
        <mxCell id="UuwrwuRLREhhJN5w9pP1-17" value="" style="shape=process;whiteSpace=wrap;html=1;backgroundOutline=1;" vertex="1" parent="1">
          <mxGeometry x="505" y="365" width="40" height="10" as="geometry" />
        </mxCell>
        <mxCell id="UuwrwuRLREhhJN5w9pP1-18" value="" style="shape=process;whiteSpace=wrap;html=1;backgroundOutline=1;" vertex="1" parent="1">
          <mxGeometry x="505" y="375" width="40" height="10" as="geometry" />
        </mxCell>
        <mxCell id="UuwrwuRLREhhJN5w9pP1-22" value="" style="shape=process;whiteSpace=wrap;html=1;backgroundOutline=1;" vertex="1" parent="1">
          <mxGeometry x="505" y="355" width="40" height="10" as="geometry" />
        </mxCell>
        <mxCell id="UuwrwuRLREhhJN5w9pP1-23" value="&lt;font style=&quot;font-size: 12px;&quot;&gt;FE 조회 서버&lt;/font&gt;" style="text;strokeColor=none;fillColor=none;html=1;fontSize=24;fontStyle=1;verticalAlign=middle;align=center;" vertex="1" parent="1">
          <mxGeometry x="475" y="385" width="100" height="40" as="geometry" />
        </mxCell>
        <mxCell id="UuwrwuRLREhhJN5w9pP1-24" value="" style="rounded=1;whiteSpace=wrap;html=1;align=left;dashed=1;" vertex="1" parent="1">
          <mxGeometry x="490" y="250" width="70" height="60" as="geometry" />
        </mxCell>
        <mxCell id="UuwrwuRLREhhJN5w9pP1-25" value="" style="shape=process;whiteSpace=wrap;html=1;backgroundOutline=1;" vertex="1" parent="1">
          <mxGeometry x="505" y="275" width="40" height="10" as="geometry" />
        </mxCell>
        <mxCell id="UuwrwuRLREhhJN5w9pP1-26" value="" style="shape=process;whiteSpace=wrap;html=1;backgroundOutline=1;" vertex="1" parent="1">
          <mxGeometry x="505" y="285" width="40" height="10" as="geometry" />
        </mxCell>
        <mxCell id="UuwrwuRLREhhJN5w9pP1-27" value="" style="shape=process;whiteSpace=wrap;html=1;backgroundOutline=1;" vertex="1" parent="1">
          <mxGeometry x="505" y="265" width="40" height="10" as="geometry" />
        </mxCell>
        <mxCell id="UuwrwuRLREhhJN5w9pP1-28" value="&lt;font style=&quot;font-size: 12px;&quot;&gt;FE 생성 서버&lt;/font&gt;" style="text;strokeColor=none;fillColor=none;html=1;fontSize=24;fontStyle=1;verticalAlign=middle;align=center;" vertex="1" parent="1">
          <mxGeometry x="475" y="295" width="100" height="40" as="geometry" />
        </mxCell>
        <mxCell id="UuwrwuRLREhhJN5w9pP1-29" value="" style="endArrow=classic;html=1;rounded=0;exitX=1.009;exitY=0.129;exitDx=0;exitDy=0;exitPerimeter=0;" edge="1" parent="1" source="UuwrwuRLREhhJN5w9pP1-8">
          <mxGeometry width="50" height="50" relative="1" as="geometry">
            <mxPoint x="380" y="320" as="sourcePoint" />
            <mxPoint x="488" y="300" as="targetPoint" />
          </mxGeometry>
        </mxCell>
        <mxCell id="UuwrwuRLREhhJN5w9pP1-30" value="&lt;font style=&quot;font-size: 16px;&quot;&gt;1)&lt;/font&gt;" style="text;strokeColor=none;fillColor=none;html=1;fontSize=24;fontStyle=1;verticalAlign=middle;align=center;strokeWidth=1;" vertex="1" parent="1">
          <mxGeometry x="270" y="280" width="100" height="40" as="geometry" />
        </mxCell>
      </root>
    </mxGraphModel>
  </diagram>
</mxfile>
